<?xml version="1.0" encoding="utf-8"?><svg xmlns="http://www.w3.org/2000/svg" xmlns:xlink="http://www.w3.org/1999/xlink" width="1364" height="697" preserveAspectRatio="xMidYMid" viewBox="0 0 1364 697" style="z-index:1;margin-right:-2px;display:block;background-repeat-y:initial;background-repeat-x:initial;background-color:rgb(255, 255, 255);animation-play-state:paused" ><g transform="translate(682,348.5) scale(1,1) translate(-682,-348.5)" style="transform:matrix(1, 0, 0, 1, 0, 0);animation-play-state:paused" ><g transform="translate(1091.2,348.5) scale(100)" opacity="0.67" style="transform:matrix(100, 0, 0, 100, 1091.2, 348.5);opacity:0.67;animation-play-state:paused" ><path d="M3.5395800000000004 0 C3.5395800000000004 1.1866800000000004 4.615525705844523 1.2945149738370816 4.022185705844523 2.3222099999999997 S2.7974850261629185 2.472026198727323 1.7697900000000006 3.0653661987273235 S1.1866800000000006 4.64442 2.8438870434479753e-16 4.64442 S-0.7420949738370812 3.658706198727324 -1.7697899999999993 3.065366198727324 S-3.4288457058445214 3.3499050261629195 -4.022185705844522 2.3222100000000014 S-3.5395800000000004 1.1866800000000008 -3.5395800000000004 4.334735317325989e-16 S-4.615525705844523 -1.2945149738370805 -4.022185705844524 -2.3222099999999988 S-2.79748502616292 -2.472026198727322 -1.7697900000000018 -3.065366198727323 S-1.1866800000000013 -4.64442 -8.531661130343925e-16 -4.64442 S0.7420949738370792 -3.658706198727325 1.7697899999999978 -3.0653661987273253 S3.428845705844521 -3.34990502616292 4.022185705844522 -2.3222100000000023 S3.53958 -1.1866800000000013 3.5395800000000004 -8.669470634651978e-16" fill="#1724a0" stroke-width="0" transform="matrix(1,0,0,1,0,0)" style="transform:matrix(1, 0, 0, 1, 0, 0);animation-play-state:paused" ></path></g>
<g transform="translate(1173.04,348.5) scale(100)" opacity="0.67" style="transform:matrix(100, 0, 0, 100, 1173.04, 348.5);opacity:0.67;animation-play-state:paused" ><path d="M4.247496 0 C4.247496 1.4240160000000002 5.538630847013428 1.5534179686044982 4.826622847013428 2.7866519999999997 S3.3569820313955017 2.966431438472788 2.1237480000000004 3.678439438472788 S1.4240160000000006 5.573304 3.41266445213757e-16 5.573304 S-0.8905139686044976 4.390447438472788 -2.123747999999999 3.6784394384727883 S-4.114614847013425 4.019886031395503 -4.826622847013426 2.786652000000002 S-4.247496 1.4240160000000006 -4.247496 5.201682380791186e-16 S-5.538630847013428 -1.5534179686044973 -4.826622847013428 -2.786651999999999 S-3.3569820313955026 -2.9664314384727866 -2.1237480000000017 -3.6784394384727874 S-1.4240160000000013 -5.573304 -1.023799335641271e-15 -5.573304 S0.8905139686044954 -4.390447438472789 2.1237479999999973 -3.6784394384727896 S4.114614847013425 -4.019886031395504 4.826622847013426 -2.786652000000003 S4.247496 -1.4240160000000013 4.247496 -1.0403364761582372e-15" fill="#0d1e7f" stroke-width="0" transform="matrix(1,0,0,1,0,0)" style="transform:matrix(1, 0, 0, 1, 0, 0);animation-play-state:paused" ></path></g></g></svg>