<?xml version="1.0" encoding="utf-8"?><svg xmlns="http://www.w3.org/2000/svg" xmlns:xlink="http://www.w3.org/1999/xlink" width="1364" height="697" preserveAspectRatio="xMidYMid" viewBox="0 0 1364 697" style="z-index:1;margin-right:-2px;display:block;background-repeat-y:initial;background-repeat-x:initial;background-color:rgb(255, 255, 255);animation-play-state:paused" ><g transform="translate(682,348.5) scale(1,1) translate(-682,-348.5)" style="transform:matrix(1, 0, 0, 1, 0, 0);animation-play-state:paused" ><defs style="animation-play-state:paused" ><linearGradient id="ldbk-photon-mswv4n09lm-lg" x1="657" x2="1364" y1="0" y2="0" gradientUnits="userSpaceOnUse" style="animation-play-state:paused" ><stop stop-color="#1765b3" offset="0" style="animation-play-state:paused" ></stop>

    
<stop stop-color="#8b1eb3" offset="1" style="animation-play-state:paused" ></stop></linearGradient>

  
<mask id="ldbk-photon-mswv4n09lm-mask" style="animation-play-state:paused" ><g style="animation-play-state:paused" ><path d="M1664 -0.5 L675.8132863762277 -0.5 A15.5 15.5 0 0 1 675.8132863762277 31.5 L1664 31.5" fill="#fff" transform="matrix(1,0,0,1,30.192934036254883,0)" style="transform:matrix(1, 0, 0, 1, 30.1929, 0);animation-play-state:paused" ></path>
<path d="M1412.8911572401832 -0.5 L1430.7823144803665 -0.5 A15.5 15.5 0 0 1 1430.7823144803665 31.5 L1412.8911572401832 31.5 A15.5 15.5 0 0 1 1412.8911572401832 -0.5" fill="#000" transform="matrix(1,0,0,1,0,0)" opacity="1" style="transform:matrix(1, 0, 0, 1, 0, 0);animation-play-state:paused" ></path>
<path d="M1664 30.5 L622.0711348079402 30.5 A15.5 15.5 0 0 0 622.0711348079402 62.5 L1664 62.5" fill="#fff" transform="matrix(1,0,0,1,-14.922294616699219,0)" style="transform:matrix(1, 0, 0, 1, -14.9223, 0);animation-play-state:paused" ></path>
<path d="M747.4167395316346 30.5 L764.3868010943777 30.5 A15.5 15.5 0 0 1 764.3868010943777 62.5 L747.4167395316346 62.5 A15.5 15.5 0 0 1 747.4167395316346 30.5" fill="#fff" transform="matrix(1,0,0,1,0,0)" opacity="0.869565" style="transform:matrix(1, 0, 0, 1, 0, 0);opacity:0.869565;animation-play-state:paused" ></path>
<path d="M1664 61.5 L656.3833144227984 61.5 A15.5 15.5 0 0 1 656.3833144227984 93.5 L1664 93.5" fill="#fff" transform="matrix(1,0,0,1,0.1261495053768158,0)" style="transform:matrix(1, 0, 0, 1, 0.12615, 0);animation-play-state:paused" ></path>
<path d="M1408.5987854672167 61.5 L1422.1975709344333 61.5 A15.5 15.5 0 0 1 1422.1975709344333 93.5 L1408.5987854672167 93.5 A15.5 15.5 0 0 1 1408.5987854672167 61.5" fill="#000" transform="matrix(1,0,0,1,-341.4849853515625,0)" opacity="1" style="transform:matrix(1, 0, 0, 1, -341.485, 0);animation-play-state:paused" ></path>
<path d="M1664 92.5 L589.5742205880381 92.5 A15.5 15.5 0 0 0 589.5742205880381 124.5 L1664 124.5" fill="#fff" transform="matrix(1,0,0,1,-25.059951782226562,0)" style="transform:matrix(1, 0, 0, 1, -25.06, 0);animation-play-state:paused" ></path>
<path d="M719.9632692190123 92.5 L744.601464529063 92.5 A15.5 15.5 0 0 1 744.601464529063 124.5 L719.9632692190123 124.5 A15.5 15.5 0 0 1 719.9632692190123 92.5" fill="#fff" transform="matrix(1,0,0,1,0,0)" opacity="0.310559" style="transform:matrix(1, 0, 0, 1, 0, 0);opacity:0.310559;animation-play-state:paused" ></path>
<path d="M1664 123.5 L655.6449411433073 123.5 A15.5 15.5 0 0 1 655.6449411433073 155.5 L1664 155.5" fill="#fff" transform="matrix(1,0,0,1,0.8376173973083496,0)" style="transform:matrix(1, 0, 0, 1, 0.837617, 0);animation-play-state:paused" ></path>
<path d="M1405.1275182792413 123.5 L1415.2550365584825 123.5 A15.5 15.5 0 0 1 1415.2550365584825 155.5 L1405.1275182792413 155.5 A15.5 15.5 0 0 1 1405.1275182792413 123.5" fill="#000" transform="matrix(1,0,0,1,-47.54703140258789,0)" opacity="1" style="transform:matrix(1, 0, 0, 1, -47.547, 0);animation-play-state:paused" ></path>
<path d="M1664 154.5 L600.0683463745727 154.5 A15.5 15.5 0 0 0 600.0683463745727 186.5 L1664 186.5" fill="#fff" transform="matrix(1,0,0,1,-29.041141510009766,0)" style="transform:matrix(1, 0, 0, 1, -29.0411, 0);animation-play-state:paused" ></path>
<path d="M727.6933372616202 154.5 L757.4848363779341 154.5 A15.5 15.5 0 0 1 757.4848363779341 186.5 L727.6933372616202 186.5 A15.5 15.5 0 0 1 727.6933372616202 154.5" fill="#fff" transform="matrix(1,0,0,1,0,0)" opacity="0.496894" style="transform:matrix(1, 0, 0, 1, 0, 0);opacity:0.496894;animation-play-state:paused" ></path>
<path d="M1664 185.5 L656.7458866959092 185.5 A15.5 15.5 0 0 1 656.7458866959092 217.5 L1664 217.5" fill="#fff" transform="matrix(1,0,0,1,1.0224931240081787,0)" style="transform:matrix(1, 0, 0, 1, 1.02249, 0);animation-play-state:paused" ></path>
<path d="M1414.5216324519647 185.5 L1434.0432649039294 185.5 A15.5 15.5 0 0 1 1434.0432649039294 217.5 L1414.5216324519647 217.5 A15.5 15.5 0 0 1 1414.5216324519647 185.5" fill="#000" transform="matrix(1,0,0,1,-692.2296142578125,0)" opacity="0.621118" style="transform:matrix(1, 0, 0, 1, -692.23, 0);opacity:0.621118;animation-play-state:paused" ></path>
<path d="M1664 216.5 L626.3117057223375 216.5 A15.5 15.5 0 0 0 626.3117057223375 248.5 L1664 248.5" fill="#fff" transform="matrix(1,0,0,1,-25.378753662109375,0)" style="transform:matrix(1, 0, 0, 1, -25.3788, 0);animation-play-state:paused" ></path>
<path d="M685.6209362055954 216.5 L700.216590986719 216.5 A15.5 15.5 0 0 1 700.216590986719 248.5 L685.6209362055954 248.5 A15.5 15.5 0 0 1 685.6209362055954 216.5" fill="#fff" transform="matrix(1,0,0,1,0,0)" opacity="0.248447" style="transform:matrix(1, 0, 0, 1, 0, 0);opacity:0.248447;animation-play-state:paused" ></path>
<path d="M1664 247.5 L646.3740510705676 247.5 A15.5 15.5 0 0 1 646.3740510705676 279.5 L1664 279.5" fill="#fff" transform="matrix(1,0,0,1,25.880292892456055,0)" style="transform:matrix(1, 0, 0, 1, 25.8803, 0);animation-play-state:paused" ></path>
<path d="M1432.7613028689586 247.5 L1470.5226057379173 247.5 A15.5 15.5 0 0 1 1470.5226057379173 279.5 L1432.7613028689586 279.5 A15.5 15.5 0 0 1 1432.7613028689586 247.5" fill="#000" transform="matrix(1,0,0,1,-125.97600555419922,0)" opacity="1" style="transform:matrix(1, 0, 0, 1, -125.976, 0);animation-play-state:paused" ></path>
<path d="M1664 278.5 L586.4280513590364 278.5 A15.5 15.5 0 0 0 586.4280513590364 310.5 L1664 310.5" fill="#fff" transform="matrix(1,0,0,1,-7.985443115234375,0)" style="transform:matrix(1, 0, 0, 1, -7.98544, 0);animation-play-state:paused" ></path>
<path d="M731.6131876036521 278.5 L744.0415961834743 278.5 A15.5 15.5 0 0 1 744.0415961834743 310.5 L731.6131876036521 310.5 A15.5 15.5 0 0 1 731.6131876036521 278.5" fill="#fff" transform="matrix(1,0,0,1,0,0)" opacity="1" style="transform:matrix(1, 0, 0, 1, 0, 0);animation-play-state:paused" ></path>
<path d="M1664 309.5 L665.8688280498322 309.5 A15.5 15.5 0 0 1 665.8688280498322 341.5 L1664 341.5" fill="#fff" transform="matrix(1,0,0,1,10.550020217895508,0)" style="transform:matrix(1, 0, 0, 1, 10.55, 0);animation-play-state:paused" ></path>
<path d="M1421.0287702012308 309.5 L1447.0575404024617 309.5 A15.5 15.5 0 0 1 1447.0575404024617 341.5 L1421.0287702012308 341.5 A15.5 15.5 0 0 1 1421.0287702012308 309.5" fill="#000" transform="matrix(1,0,0,1,-1407.3282470703125,0)" opacity="0.124223" style="transform:matrix(1, 0, 0, 1, -1407.33, 0);opacity:0.124223;animation-play-state:paused" ></path>
<path d="M1664 340.5 L643.3814597559076 340.5 A15.5 15.5 0 0 0 643.3814597559076 372.5 L1664 372.5" fill="#fff" transform="matrix(1,0,0,1,-1.1979293823242188,0)" style="transform:matrix(1, 0, 0, 1, -1.19793, 0);animation-play-state:paused" ></path>
<path d="M698.7322934465417 340.5 L711.9743826787316 340.5 A15.5 15.5 0 0 1 711.9743826787316 372.5 L698.7322934465417 372.5 A15.5 15.5 0 0 1 698.7322934465417 340.5" fill="#fff" transform="matrix(1,0,0,1,0,0)" opacity="0.186335" style="transform:matrix(1, 0, 0, 1, 0, 0);opacity:0.186335;animation-play-state:paused" ></path>
<path d="M1664 371.5 L691.786999444761 371.5 A15.5 15.5 0 0 1 691.786999444761 403.5 L1664 403.5" fill="#fff" transform="matrix(1,0,0,1,0.7614615559577942,0)" style="transform:matrix(1, 0, 0, 1, 0.761462, 0);animation-play-state:paused" ></path>
<path d="M1421.3909978594384 371.5 L1447.7819957188767 371.5 A15.5 15.5 0 0 1 1447.7819957188767 403.5 L1421.3909978594384 403.5 A15.5 15.5 0 0 1 1421.3909978594384 371.5" fill="#000" transform="matrix(1,0,0,1,-153.38311767578125,0)" opacity="1" style="transform:matrix(1, 0, 0, 1, -153.383, 0);animation-play-state:paused" ></path>
<path d="M1664 402.5 L678.6572937766981 402.5 A15.5 15.5 0 0 0 678.6572937766981 434.5 L1664 434.5" fill="#fff" transform="matrix(1,0,0,1,-2.776996612548828,0)" style="transform:matrix(1, 0, 0, 1, -2.777, 0);animation-play-state:paused" ></path>
<path d="M732.2135891374081 402.5 L745.0207304104246 402.5 A15.5 15.5 0 0 1 745.0207304104246 434.5 L732.2135891374081 434.5 A15.5 15.5 0 0 1 732.2135891374081 402.5" fill="#fff" transform="matrix(1,0,0,1,0,0)" opacity="0.869565" style="transform:matrix(1, 0, 0, 1, 0, 0);opacity:0.869565;animation-play-state:paused" ></path>
<path d="M1664 433.5 L696.3757987326305 433.5 A15.5 15.5 0 0 1 696.3757987326305 465.5 L1664 465.5" fill="#fff" transform="matrix(1,0,0,1,31.290752410888672,0)" style="transform:matrix(1, 0, 0, 1, 31.2908, 0);animation-play-state:paused" ></path>
<path d="M1414.6960747218225 433.5 L1434.392149443645 433.5 A15.5 15.5 0 0 1 1434.392149443645 465.5 L1414.6960747218225 465.5 A15.5 15.5 0 0 1 1414.6960747218225 433.5" fill="#000" transform="matrix(1,0,0,1,-1170.138671875,0)" opacity="0.248447" style="transform:matrix(1, 0, 0, 1, -1170.14, 0);opacity:0.248447;animation-play-state:paused" ></path>
<path d="M1664 464.5 L678.9042812457225 464.5 A15.5 15.5 0 0 0 678.9042812457225 496.5 L1664 496.5" fill="#fff" transform="matrix(1,0,0,1,-30.049936294555664,0)" style="transform:matrix(1, 0, 0, 1, -30.0499, 0);animation-play-state:paused" ></path>
<path d="M741.4674141221541 464.5 L775.7767604526296 464.5 A15.5 15.5 0 0 1 775.7767604526296 496.5 L741.4674141221541 496.5 A15.5 15.5 0 0 1 741.4674141221541 464.5" fill="#fff" transform="matrix(1,0,0,1,0,0)" opacity="0.186334" style="transform:matrix(1, 0, 0, 1, 0, 0);opacity:0.186334;animation-play-state:paused" ></path>
<path d="M1664 495.5 L695.5965056583934 495.5 A15.5 15.5 0 0 1 695.5965056583934 527.5 L1664 527.5" fill="#fff" transform="matrix(1,0,0,1,21.945411682128906,0)" style="transform:matrix(1, 0, 0, 1, 21.9454, 0);animation-play-state:paused" ></path>
<path d="M1417.791244653821 495.5 L1440.582489307642 495.5 A15.5 15.5 0 0 1 1440.582489307642 527.5 L1417.791244653821 527.5 A15.5 15.5 0 0 1 1417.791244653821 495.5" fill="#000" transform="matrix(1,0,0,1,-93.6650161743164,0)" opacity="1" style="transform:matrix(1, 0, 0, 1, -93.665, 0);animation-play-state:paused" ></path>
<path d="M1664 526.5 L646.7139875298963 526.5 A15.5 15.5 0 0 0 646.7139875298963 558.5 L1664 558.5" fill="#fff" transform="matrix(1,0,0,1,-7.035510540008545,0)" style="transform:matrix(1, 0, 0, 1, -7.03551, 0);animation-play-state:paused" ></path>
<path d="M775.3426279860817 526.5 L807.9688124458289 526.5 A15.5 15.5 0 0 1 807.9688124458289 558.5 L775.3426279860817 558.5 A15.5 15.5 0 0 1 775.3426279860817 526.5" fill="#fff" transform="matrix(1,0,0,1,0,0)" opacity="0.496893" style="transform:matrix(1, 0, 0, 1, 0, 0);opacity:0.496893;animation-play-state:paused" ></path>
<path d="M1664 557.5 L704.4304764707856 557.5 A15.5 15.5 0 0 1 704.4304764707856 589.5 L1664 589.5" fill="#fff" transform="matrix(1,0,0,1,26.991174697875977,0)" style="transform:matrix(1, 0, 0, 1, 26.9912, 0);animation-play-state:paused" ></path>
<path d="M1428.4110749985498 557.5 L1461.8221499970996 557.5 A15.5 15.5 0 0 1 1461.8221499970996 589.5 L1428.4110749985498 589.5 A15.5 15.5 0 0 1 1428.4110749985498 557.5" fill="#000" transform="matrix(1,0,0,1,-572.0286865234375,0)" opacity="0.931677" style="transform:matrix(1, 0, 0, 1, -572.029, 0);opacity:0.931677;animation-play-state:paused" ></path>
<path d="M1664 588.5 L671.2099425186146 588.5 A15.5 15.5 0 0 0 671.2099425186146 620.5 L1664 620.5" fill="#fff" transform="matrix(1,0,0,1,-0.06788825988769531,0)" style="transform:matrix(1, 0, 0, 1, -0.0678883, 0);animation-play-state:paused" ></path>
<path d="M748.2316435554291 588.5 L767.2223085715327 588.5 A15.5 15.5 0 0 1 767.2223085715327 620.5 L748.2316435554291 620.5 A15.5 15.5 0 0 1 748.2316435554291 588.5" fill="#fff" transform="matrix(1,0,0,1,0,0)" opacity="0.0621108" style="transform:matrix(1, 0, 0, 1, 0, 0);opacity:0.0621108;animation-play-state:paused" ></path>
<path d="M1664 619.5 L684.2923129622716 619.5 A15.5 15.5 0 0 1 684.2923129622716 651.5 L1664 651.5" fill="#fff" transform="matrix(1,0,0,1,31.263710021972656,0)" style="transform:matrix(1, 0, 0, 1, 31.2637, 0);animation-play-state:paused" ></path>
<path d="M1409.7698628761816 619.5 L1424.5397257523632 619.5 A15.5 15.5 0 0 1 1424.5397257523632 651.5 L1409.7698628761816 651.5 A15.5 15.5 0 0 1 1409.7698628761816 619.5" fill="#000" transform="matrix(1,0,0,1,-368.02508544921875,0)" opacity="1" style="transform:matrix(1, 0, 0, 1, -368.025, 0);animation-play-state:paused" ></path>
<path d="M1664 650.5 L658.9737244648354 650.5 A15.5 15.5 0 0 0 658.9737244648354 682.5 L1664 682.5" fill="#fff" transform="matrix(1,0,0,1,-23.167377471923828,0)" style="transform:matrix(1, 0, 0, 1, -23.1674, 0);animation-play-state:paused" ></path>
<path d="M751.0588793148179 650.5 L771.1396464247234 650.5 A15.5 15.5 0 0 1 771.1396464247234 682.5 L751.0588793148179 682.5 A15.5 15.5 0 0 1 751.0588793148179 650.5" fill="#fff" transform="matrix(1,0,0,1,0,0)" opacity="1" style="transform:matrix(1, 0, 0, 1, 0, 0);animation-play-state:paused" ></path>
<path d="M1664 681.5 L676.6730694859292 681.5 A15.5 15.5 0 0 1 676.6730694859292 713.5 L1664 713.5" fill="#fff" transform="matrix(1,0,0,1,3.1471455097198486,0)" style="transform:matrix(1, 0, 0, 1, 3.14715, 0);animation-play-state:paused" ></path>
<path d="M1407.5147595161222 681.5 L1420.0295190322445 681.5 A15.5 15.5 0 0 1 1420.0295190322445 713.5 L1407.5147595161222 713.5 A15.5 15.5 0 0 1 1407.5147595161222 681.5" fill="#000" transform="matrix(1,0,0,1,-916.0701904296875,0)" opacity="0.37267" style="transform:matrix(1, 0, 0, 1, -916.07, 0);opacity:0.37267;animation-play-state:paused" ></path></g></mask></defs>


<rect x="0" y="0" width="1364" height="697" fill="url(#ldbk-photon-mswv4n09lm-lg)" mask="url(#ldbk-photon-mswv4n09lm-mask)" style="animation-play-state:paused" ></rect></g></svg>