<?xml version="1.0" encoding="utf-8"?><svg xmlns="http://www.w3.org/2000/svg" xmlns:xlink="http://www.w3.org/1999/xlink" width="1390" height="713" preserveAspectRatio="xMidYMid" viewBox="0 0 1390 713" style="z-index:1;margin-right:-2px;display:block;background-repeat-y:initial;background-repeat-x:initial;background-color:rgb(241, 242, 243);animation-play-state:paused" ><g transform="translate(695,356.5) scale(1,1) translate(-695,-356.5)" style="transform:matrix(1, 0, 0, 1, 0, 0);animation-play-state:paused" ><defs style="animation-play-state:paused" ><linearGradient id="ldbk-photon-nwatvdps8z-lg" x1="0" x2="636.6" y1="0" y2="0" gradientUnits="userSpaceOnUse" style="animation-play-state:paused" ><stop stop-color="#116cc6" offset="0" style="animation-play-state:paused" ></stop>

    
<stop stop-color="#5325ba" offset="1" style="animation-play-state:paused" ></stop></linearGradient>

  
<mask id="ldbk-photon-nwatvdps8z-mask" style="animation-play-state:paused" ><g style="animation-play-state:paused" ><path d="M-300 -0.5 L669.4695063508711 -0.5 A14 14 0 0 1 669.4695063508711 28.5 L-300 28.5" fill="#fff" transform="matrix(1,0,0,1,0,0)" style="transform:matrix(1, 0, 0, 1, 0, 0);animation-play-state:paused" ></path>
<path d="M621.4318516663908 -0.5 L641.4695063508711 -0.5 A14 14 0 0 1 641.4695063508711 28.5 L621.4318516663908 28.5 A14 14 0 0 1 621.4318516663908 -0.5" fill="#fff" transform="matrix(1,0,0,1,0,0)" opacity="1" style="transform:matrix(1, 0, 0, 1, 0, 0);animation-play-state:paused" ></path>
<path d="M-300 27.5 L643.0236487279906 27.5 A14 14 0 0 0 643.0236487279906 56.5 L-300 56.5" fill="#fff" transform="matrix(1,0,0,1,-100.47093200683594,0)" style="transform:matrix(1, 0, 0, 1, -100.471, 0);animation-play-state:paused" ></path>
<path d="M-42.84114328538179 27.5 L-27.999999999999996 27.5 A14 14 0 0 1 -27.999999999999996 56.5 L-42.84114328538179 56.5 A14 14 0 0 1 -42.84114328538179 27.5" fill="#000" transform="matrix(1,0,0,1,0,0)" opacity="1" style="transform:matrix(1, 0, 0, 1, 0, 0);animation-play-state:paused" ></path>
<path d="M-300 55.5 L696.8494671482737 55.5 A14 14 0 0 1 696.8494671482737 84.5 L-300 84.5" fill="#fff" transform="matrix(1,0,0,1,130.96351623535156,0)" style="transform:matrix(1, 0, 0, 1, 130.964, 0);animation-play-state:paused" ></path>
<path d="M637.1560285542588 55.5 L668.8494671482737 55.5 A14 14 0 0 1 668.8494671482737 84.5 L637.1560285542588 84.5 A14 14 0 0 1 637.1560285542588 55.5" fill="#fff" transform="matrix(1,0,0,1,637.4575805664062,0)" opacity="0.439561" style="transform:matrix(1, 0, 0, 1, 637.458, 0);opacity:0.439561;animation-play-state:paused" ></path>
<path d="M-300 83.5 L650.0522960703349 83.5 A14 14 0 0 0 650.0522960703349 112.5 L-300 112.5" fill="#fff" transform="matrix(1,0,0,1,-72.71624755859375,0)" style="transform:matrix(1, 0, 0, 1, -72.7162, 0);animation-play-state:paused" ></path>
<path d="M-64.3190242325978 83.5 L-28 83.5 A14 14 0 0 1 -28 112.5 L-64.3190242325978 112.5 A14 14 0 0 1 -64.3190242325978 83.5" fill="#000" transform="matrix(1,0,0,1,0,0)" opacity="0.934066" style="transform:matrix(1, 0, 0, 1, 0, 0);opacity:0.934066;animation-play-state:paused" ></path>
<path d="M-300 111.5 L696.4115243508302 111.5 A14 14 0 0 1 696.4115243508302 140.5 L-300 140.5" fill="#fff" transform="matrix(1,0,0,1,67.53270721435547,0)" style="transform:matrix(1, 0, 0, 1, 67.5327, 0);animation-play-state:paused" ></path>
<path d="M648.8950685988314 111.5 L668.4115243508302 111.5 A14 14 0 0 1 668.4115243508302 140.5 L648.8950685988314 140.5 A14 14 0 0 1 648.8950685988314 111.5" fill="#fff" transform="matrix(1,0,0,1,363.16900634765625,0)" opacity="0.879121" style="transform:matrix(1, 0, 0, 1, 363.169, 0);opacity:0.879121;animation-play-state:paused" ></path>
<path d="M-300 139.5 L666.2854657282771 139.5 A14 14 0 0 0 666.2854657282771 168.5 L-300 168.5" fill="#fff" transform="matrix(1,0,0,1,-142.3502655029297,0)" style="transform:matrix(1, 0, 0, 1, -142.35, 0);animation-play-state:paused" ></path>
<path d="M-40.78672168466052 139.5 L-28 139.5 A14 14 0 0 1 -28 168.5 L-40.78672168466052 168.5 A14 14 0 0 1 -40.78672168466052 139.5" fill="#000" transform="matrix(1,0,0,1,0,0)" opacity="0.384615" style="transform:matrix(1, 0, 0, 1, 0, 0);opacity:0.384615;animation-play-state:paused" ></path>
<path d="M-300 167.5 L680.5823598808543 167.5 A14 14 0 0 1 680.5823598808543 196.5 L-300 196.5" fill="#fff" transform="matrix(1,0,0,1,3.2979068756103516,0)" style="transform:matrix(1, 0, 0, 1, 3.29791, 0);animation-play-state:paused" ></path>
<path d="M638.3184417434641 167.5 L652.5823598808543 167.5 A14 14 0 0 1 652.5823598808543 196.5 L638.3184417434641 196.5 A14 14 0 0 1 638.3184417434641 167.5" fill="#fff" transform="matrix(1,0,0,1,74.50761413574219,0)" opacity="1" style="transform:matrix(1, 0, 0, 1, 74.5076, 0);animation-play-state:paused" ></path>
<path d="M-300 195.5 L634.0087859072324 195.5 A14 14 0 0 0 634.0087859072324 224.5 L-300 224.5" fill="#fff" transform="matrix(1,0,0,1,-124.05393981933594,0)" style="transform:matrix(1, 0, 0, 1, -124.054, 0);animation-play-state:paused" ></path>
<path d="M-62.80432151354324 195.5 L-28 195.5 A14 14 0 0 1 -28 224.5 L-62.80432151354324 224.5 A14 14 0 0 1 -62.80432151354324 195.5" fill="#000" transform="matrix(1,0,0,1,0,0)" opacity="0.274725" style="transform:matrix(1, 0, 0, 1, 0, 0);opacity:0.274725;animation-play-state:paused" ></path>
<path d="M-300 223.5 L676.8000746107161 223.5 A14 14 0 0 1 676.8000746107161 252.5 L-300 252.5" fill="#fff" transform="matrix(1,0,0,1,47.376808166503906,0)" style="transform:matrix(1, 0, 0, 1, 47.3768, 0);animation-play-state:paused" ></path>
<path d="M623.1740018754593 223.5 L648.8000746107161 223.5 A14 14 0 0 1 648.8000746107161 252.5 L623.1740018754593 252.5 A14 14 0 0 1 623.1740018754593 223.5" fill="#fff" transform="matrix(1,0,0,1,1048.0526123046875,0)" opacity="0.21978" style="transform:matrix(1, 0, 0, 1, 1048.05, 0);opacity:0.21978;animation-play-state:paused" ></path>
<path d="M-300 251.5 L640.4474534515695 251.5 A14 14 0 0 0 640.4474534515695 280.5 L-300 280.5" fill="#fff" transform="matrix(1,0,0,1,-4.80068826675415,0)" style="transform:matrix(1, 0, 0, 1, -4.80069, 0);animation-play-state:paused" ></path>
<path d="M-66.03952577662464 251.5 L-28 251.5 A14 14 0 0 1 -28 280.5 L-66.03952577662464 280.5 A14 14 0 0 1 -66.03952577662464 251.5" fill="#000" transform="matrix(1,0,0,1,0,0)" opacity="1" style="transform:matrix(1, 0, 0, 1, 0, 0);animation-play-state:paused" ></path>
<path d="M-300 279.5 L673.7517473401605 279.5 A14 14 0 0 1 673.7517473401605 308.5 L-300 308.5" fill="#fff" transform="matrix(1,0,0,1,75.76040649414062,0)" style="transform:matrix(1, 0, 0, 1, 75.7604, 0);animation-play-state:paused" ></path>
<path d="M630.5077897434167 279.5 L645.7517473401604 279.5 A14 14 0 0 1 645.7517473401604 308.5 L630.5077897434167 308.5 A14 14 0 0 1 630.5077897434167 279.5" fill="#fff" transform="matrix(1,0,0,1,228.2029266357422,0)" opacity="1" style="transform:matrix(1, 0, 0, 1, 228.203, 0);animation-play-state:paused" ></path>
<path d="M-300 307.5 L624.407609420628 307.5 A14 14 0 0 0 624.407609420628 336.5 L-300 336.5" fill="#fff" transform="matrix(1,0,0,1,-93.51900482177734,0)" style="transform:matrix(1, 0, 0, 1, -93.519, 0);animation-play-state:paused" ></path>
<path d="M-47.561755341979506 307.5 L-27.999999999999996 307.5 A14 14 0 0 1 -27.999999999999996 336.5 L-47.561755341979506 336.5 A14 14 0 0 1 -47.561755341979506 307.5" fill="#000" transform="matrix(1,0,0,1,0,0)" opacity="0.659341" style="transform:matrix(1, 0, 0, 1, 0, 0);opacity:0.659341;animation-play-state:paused" ></path>
<path d="M-300 335.5 L640.1097060853903 335.5 A14 14 0 0 1 640.1097060853903 364.5 L-300 364.5" fill="#fff" transform="matrix(1,0,0,1,91.35578155517578,0)" style="transform:matrix(1, 0, 0, 1, 91.3558, 0);animation-play-state:paused" ></path>
<path d="M594.6685564148702 335.5 L612.1097060853903 335.5 A14 14 0 0 1 612.1097060853903 364.5 L594.6685564148702 364.5 A14 14 0 0 1 594.6685564148702 335.5" fill="#fff" transform="matrix(1,0,0,1,205.62001037597656,0)" opacity="1" style="transform:matrix(1, 0, 0, 1, 205.62, 0);animation-play-state:paused" ></path>
<path d="M-300 363.5 L620.1323563443069 363.5 A14 14 0 0 0 620.1323563443069 392.5 L-300 392.5" fill="#fff" transform="matrix(1,0,0,1,-145.99288940429688,0)" style="transform:matrix(1, 0, 0, 1, -145.993, 0);animation-play-state:paused" ></path>
<path d="M-52.81805000658383 363.5 L-28 363.5 A14 14 0 0 1 -28 392.5 L-52.81805000658383 392.5 A14 14 0 0 1 -52.81805000658383 363.5" fill="#000" transform="matrix(1,0,0,1,0,0)" opacity="0.714285" style="transform:matrix(1, 0, 0, 1, 0, 0);opacity:0.714285;animation-play-state:paused" ></path>
<path d="M-300 391.5 L621.4332002963253 391.5 A14 14 0 0 1 621.4332002963253 420.5 L-300 420.5" fill="#fff" transform="matrix(1,0,0,1,21.450111389160156,0)" style="transform:matrix(1, 0, 0, 1, 21.4501, 0);animation-play-state:paused" ></path>
<path d="M568.9789625580801 391.5 L593.4332002963253 391.5 A14 14 0 0 1 593.4332002963253 420.5 L568.9789625580801 420.5 A14 14 0 0 1 568.9789625580801 391.5" fill="#fff" transform="matrix(1,0,0,1,910.7122802734375,0)" opacity="0.21978" style="transform:matrix(1, 0, 0, 1, 910.712, 0);opacity:0.21978;animation-play-state:paused" ></path>
<path d="M-300 419.5 L596.4551478915031 419.5 A14 14 0 0 0 596.4551478915031 448.5 L-300 448.5" fill="#fff" transform="matrix(1,0,0,1,-83.6600570678711,0)" style="transform:matrix(1, 0, 0, 1, -83.6601, 0);animation-play-state:paused" ></path>
<path d="M-62.6675186629703 419.5 L-28 419.5 A14 14 0 0 1 -28 448.5 L-62.6675186629703 448.5 A14 14 0 0 1 -62.6675186629703 419.5" fill="#000" transform="matrix(1,0,0,1,0,0)" opacity="1" style="transform:matrix(1, 0, 0, 1, 0, 0);animation-play-state:paused" ></path>
<path d="M-300 447.5 L647.8888853389087 447.5 A14 14 0 0 1 647.8888853389087 476.5 L-300 476.5" fill="#fff" transform="matrix(1,0,0,1,103.87861633300781,0)" style="transform:matrix(1, 0, 0, 1, 103.879, 0);animation-play-state:paused" ></path>
<path d="M599.4792420807805 447.5 L619.8888853389087 447.5 A14 14 0 0 1 619.8888853389087 476.5 L599.4792420807805 476.5 A14 14 0 0 1 599.4792420807805 447.5" fill="#fff" transform="matrix(1,0,0,1,1018.4293212890625,0)" opacity="0.439561" style="transform:matrix(1, 0, 0, 1, 1018.43, 0);opacity:0.439561;animation-play-state:paused" ></path>
<path d="M-300 475.5 L588.5470592599726 475.5 A14 14 0 0 0 588.5470592599726 504.5 L-300 504.5" fill="#fff" transform="matrix(1,0,0,1,-0.8134002685546875,0)" style="transform:matrix(1, 0, 0, 1, -0.8134, 0);animation-play-state:paused" ></path>
<path d="M-59.76313380124347 475.5 L-28.000000000000004 475.5 A14 14 0 0 1 -28.000000000000004 504.5 L-59.76313380124347 504.5 A14 14 0 0 1 -59.76313380124347 475.5" fill="#000" transform="matrix(1,0,0,1,0,0)" opacity="0.10989" style="transform:matrix(1, 0, 0, 1, 0, 0);opacity:0.10989;animation-play-state:paused" ></path>
<path d="M-300 503.5 L633.5141470287441 503.5 A14 14 0 0 1 633.5141470287441 532.5 L-300 532.5" fill="#fff" transform="matrix(1,0,0,1,3.046510696411133,0)" style="transform:matrix(1, 0, 0, 1, 3.04651, 0);animation-play-state:paused" ></path>
<path d="M590.3178212889046 503.5 L605.5141470287441 503.5 A14 14 0 0 1 605.5141470287441 532.5 L590.3178212889046 532.5 A14 14 0 0 1 590.3178212889046 503.5" fill="#fff" transform="matrix(1,0,0,1,266.92828369140625,0)" opacity="1" style="transform:matrix(1, 0, 0, 1, 266.928, 0);animation-play-state:paused" ></path>
<path d="M-300 531.5 L595.127694261484 531.5 A14 14 0 0 0 595.127694261484 560.5 L-300 560.5" fill="#fff" transform="matrix(1,0,0,1,-115.52838134765625,0)" style="transform:matrix(1, 0, 0, 1, -115.528, 0);animation-play-state:paused" ></path>
<path d="M-62.208556675542376 531.5 L-28 531.5 A14 14 0 0 1 -28 560.5 L-62.208556675542376 560.5 A14 14 0 0 1 -62.208556675542376 531.5" fill="#000" transform="matrix(1,0,0,1,0,0)" opacity="0.604395" style="transform:matrix(1, 0, 0, 1, 0, 0);opacity:0.604395;animation-play-state:paused" ></path>
<path d="M-300 559.5 L607.2887533309234 559.5 A14 14 0 0 1 607.2887533309234 588.5 L-300 588.5" fill="#fff" transform="matrix(1,0,0,1,4.836578369140625,0)" style="transform:matrix(1, 0, 0, 1, 4.83658, 0);animation-play-state:paused" ></path>
<path d="M553.1620826968715 559.5 L579.2887533309234 559.5 A14 14 0 0 1 579.2887533309234 588.5 L553.1620826968715 588.5 A14 14 0 0 1 553.1620826968715 559.5" fill="#fff" transform="matrix(1,0,0,1,363.3088684082031,0)" opacity="0.989011" style="transform:matrix(1, 0, 0, 1, 363.309, 0);opacity:0.989011;animation-play-state:paused" ></path>
<path d="M-300 587.5 L578.1544069904306 587.5 A14 14 0 0 0 578.1544069904306 616.5 L-300 616.5" fill="#fff" transform="matrix(1,0,0,1,-66.76490020751953,0)" style="transform:matrix(1, 0, 0, 1, -66.7649, 0);animation-play-state:paused" ></path>
<path d="M-65.32172423211064 587.5 L-28 587.5 A14 14 0 0 1 -28 616.5 L-65.32172423211064 616.5 A14 14 0 0 1 -65.32172423211064 587.5" fill="#000" transform="matrix(1,0,0,1,0,0)" opacity="1" style="transform:matrix(1, 0, 0, 1, 0, 0);animation-play-state:paused" ></path>
<path d="M-300 615.5 L648.1261236973816 615.5 A14 14 0 0 1 648.1261236973816 644.5 L-300 644.5" fill="#fff" transform="matrix(1,0,0,1,77.74966430664062,0)" style="transform:matrix(1, 0, 0, 1, 77.7497, 0);animation-play-state:paused" ></path>
<path d="M599.0175235817403 615.5 L620.1261236973816 615.5 A14 14 0 0 1 620.1261236973816 644.5 L599.0175235817403 644.5 A14 14 0 0 1 599.0175235817403 615.5" fill="#fff" transform="matrix(1,0,0,1,599.471435546875,0)" opacity="0.54945" style="transform:matrix(1, 0, 0, 1, 599.471, 0);opacity:0.54945;animation-play-state:paused" ></path>
<path d="M-300 643.5 L589.8898103925658 643.5 A14 14 0 0 0 589.8898103925658 672.5 L-300 672.5" fill="#fff" transform="matrix(1,0,0,1,-104.90516662597656,0)" style="transform:matrix(1, 0, 0, 1, -104.905, 0);animation-play-state:paused" ></path>
<path d="M-57.987359880191185 643.5 L-28 643.5 A14 14 0 0 1 -28 672.5 L-57.987359880191185 672.5 A14 14 0 0 1 -57.987359880191185 643.5" fill="#000" transform="matrix(1,0,0,1,0,0)" opacity="0.494506" style="transform:matrix(1, 0, 0, 1, 0, 0);opacity:0.494506;animation-play-state:paused" ></path>
<path d="M-300 671.5 L620.5385942319087 671.5 A14 14 0 0 1 620.5385942319087 700.5 L-300 700.5" fill="#fff" transform="matrix(1,0,0,1,56.6441650390625,0)" style="transform:matrix(1, 0, 0, 1, 56.6442, 0);animation-play-state:paused" ></path>
<path d="M556.2676465907616 671.5 L592.5385942319087 671.5 A14 14 0 0 1 592.5385942319087 700.5 L556.2676465907616 700.5 A14 14 0 0 1 556.2676465907616 671.5" fill="#fff" transform="matrix(1,0,0,1,777.6364135742188,0)" opacity="0.32967" style="transform:matrix(1, 0, 0, 1, 777.636, 0);opacity:0.32967;animation-play-state:paused" ></path>
<path d="M-300 699.5 L596.9119940407581 699.5 A14 14 0 0 0 596.9119940407581 728.5 L-300 728.5" fill="#fff" transform="matrix(1,0,0,1,-9.820632934570312,0)" style="transform:matrix(1, 0, 0, 1, -9.82063, 0);animation-play-state:paused" ></path>
<path d="M-43.9586767881964 699.5 L-27.999999999999996 699.5 A14 14 0 0 1 -27.999999999999996 728.5 L-43.9586767881964 728.5 A14 14 0 0 1 -43.9586767881964 699.5" fill="#000" transform="matrix(1,0,0,1,0,0)" opacity="0.164835" style="transform:matrix(1, 0, 0, 1, 0, 0);opacity:0.164835;animation-play-state:paused" ></path></g></mask></defs>


<rect x="0" y="0" width="1390" height="713" fill="url(#ldbk-photon-nwatvdps8z-lg)" mask="url(#ldbk-photon-nwatvdps8z-mask)" style="animation-play-state:paused" ></rect></g></svg>