<?xml version="1.0" encoding="utf-8"?><svg xmlns="http://www.w3.org/2000/svg" xmlns:xlink="http://www.w3.org/1999/xlink" width="1946" height="1055" preserveAspectRatio="xMidYMid" viewBox="0 0 1946 1055" style="z-index:1;margin-right:-2px;display:block;background-repeat-y:initial;background-repeat-x:initial;background-color:rgb(241, 242, 243);animation-play-state:paused" ><g transform="translate(973,527.5) scale(1,1) translate(-973,-527.5)" style="transform:matrix(1, 0, 0, 1, 0, 0);animation-play-state:paused" ><linearGradient id="lg-0.7685099348454312" x1="0" x2="1" y1="0" y2="0" style="animation-play-state:paused" ><stop stop-color="#0f35a7" offset="0" style="animation-play-state:paused" ></stop>

  
<stop stop-color="#9b35e7" offset="1" style="animation-play-state:paused" ></stop></linearGradient>
<path d="M 0 0 L 0 1048.67 Q 194.6 839.869 389.2 797.292 T 778.4 849.789 T 1167.6 612.811 T 1556.8 520.734 T 1946 568.645 L 1946 0 Z" fill="url(#lg-0.7685099348454312)" opacity="0.4" style="opacity:0.4;animation-play-state:paused" ></path>
<path d="M 0 0 L 0 928.216 Q 194.6 849.958 389.2 824.935 T 778.4 859.624 T 1167.6 741.743 T 1556.8 614.519 T 1946 473.879 L 1946 0 Z" fill="url(#lg-0.7685099348454312)" opacity="0.4" style="opacity:0.4;animation-play-state:paused" ></path>
<path d="M 0 0 L 0 927.246 Q 194.6 951.782 389.2 921.859 T 778.4 694.105 T 1167.6 671.318 T 1556.8 586.472 T 1946 432.937 L 1946 0 Z" fill="url(#lg-0.7685099348454312)" opacity="0.4" style="opacity:0.4;animation-play-state:paused" ></path></g></svg>