<?xml version="1.0" encoding="utf-8"?><svg xmlns="http://www.w3.org/2000/svg" xmlns:xlink="http://www.w3.org/1999/xlink" width="1364" height="697" preserveAspectRatio="xMidYMid" viewBox="0 0 1364 697" style="z-index:1;margin-right:-2px;display:block;background-repeat-y:initial;background-repeat-x:initial;background-color:rgb(255, 255, 255);animation-play-state:paused" ><g transform="translate(682,348.5) scale(1,1) translate(-682,-348.5)" style="transform:matrix(1, 0, 0, 1, 0, 0);animation-play-state:paused" ><linearGradient id="lg-0.49558164638372126" x1="0" x2="1" y1="0" y2="0" style="animation-play-state:paused" ><stop stop-color="#2d93f2" offset="0" style="animation-play-state:paused" ></stop>

  
<stop stop-color="#ac45e7" offset="1" style="animation-play-state:paused" ></stop></linearGradient>
<path d="M 0 0 L 0 1036.11 Q 136.4 722.185 272.8 697.666 T 545.6 322.009 T 818.4 15.8658 T 1091.2 -279.135 T 1364 -630.563 L 1364 0 Z" fill="url(#lg-0.49558164638372126)" opacity="0.4" style="opacity:0.4;animation-play-state:paused" ></path>
<path d="M 0 0 L 0 1025.87 Q 136.4 698.056 272.8 666.514 T 545.6 303.487 T 818.4 -51.8731 T 1091.2 -379.567 T 1364 -693.603 L 1364 0 Z" fill="url(#lg-0.49558164638372126)" opacity="0.4" style="opacity:0.4;animation-play-state:paused" ></path>
<path d="M 0 0 L 0 1032.09 Q 136.4 733.883 272.8 696.619 T 545.6 359.9 T 818.4 27.5479 T 1091.2 -325.178 T 1364 -663.904 L 1364 0 Z" fill="url(#lg-0.49558164638372126)" opacity="0.4" style="opacity:0.4;animation-play-state:paused" ></path>
<path d="M 0 0 L 0 985.402 Q 136.4 693.535 272.8 670.891 T 545.6 310.528 T 818.4 -59.0051 T 1091.2 -392.998 T 1364 -798.218 L 1364 0 Z" fill="url(#lg-0.49558164638372126)" opacity="0.4" style="opacity:0.4;animation-play-state:paused" ></path>
<path d="M 0 0 L 0 991.573 Q 136.4 694.009 272.8 660.934 T 545.6 312.271 T 818.4 -47.6236 T 1091.2 -437.271 T 1364 -756.665 L 1364 0 Z" fill="url(#lg-0.49558164638372126)" opacity="0.4" style="opacity:0.4;animation-play-state:paused" ></path></g></svg>